<?xml version="1.0" encoding="UTF-8" standalone="no"?><!DOCTYPE svg PUBLIC "-//W3C//DTD SVG 1.1//EN" "http://www.w3.org/Graphics/SVG/1.1/DTD/svg11.dtd"><svg width="870px" height="240px" viewBox="0 0 580 160" version="1.1" xmlns="http://www.w3.org/2000/svg" xmlns:xlink="http://www.w3.org/1999/xlink" xml:space="preserve" xmlns:serif="http://www.serif.com/" style="fill-rule:evenodd;clip-rule:evenodd;stroke-linecap:round;stroke-linejoin:round;stroke-miterlimit:1.5;"><path d="M560.5,25c0,25.526 0.25,47.769 0.25,75" style="fill:none;stroke:#000;stroke-width:9px;"/><path d="M267.607,83.045c-6.199,0 -15.595,0.14 -20.114,0.75c-1.095,0.148 -0.302,15.507 0,15.507c2.824,0 36.757,0.645 36.706,0c-0.417,-5.23 0.086,-13.25 0,-14.838c-0.245,-4.485 1.591,-22.168 -2.203,-22.256c-11.565,-0.269 -29.846,0 -34.503,0" style="fill:none;stroke:#000;stroke-width:9px;"/><path d="M376.607,83.045c-6.199,0 -15.595,0.14 -20.114,0.75c-1.095,0.148 -0.302,15.507 0,15.507c2.824,0 36.757,0.645 36.706,0c-0.417,-5.23 0.086,-13.25 0,-14.838c-0.245,-4.485 1.591,-22.168 -2.203,-22.256c-11.565,-0.269 -29.846,0 -34.503,0" style="fill:none;stroke:#000;stroke-width:9px;"/><path d="M195.255,99.524c0.161,-8.389 0.167,-10.145 0,-14.803c-0.168,-4.688 -2.277,-22.12 0,-22.206c17.725,-0.672 22.764,-0.459 36.45,-0.459" style="fill:none;stroke:#000;stroke-width:9px;"/><path d="M505.205,77.024c0,4.188 0.199,12.649 0,22.5c-0.021,1.046 34.702,0 37.5,0" style="fill:none;stroke:#000;stroke-width:9px;"/><path d="M542.705,62.024c0,8.289 0.018,33.368 0,41.209c-0.026,11.073 -0.75,18.238 4.5,33.791" style="fill:none;stroke:#000;stroke-width:9px;"/><path d="M338.399,99.283c0.015,-24.846 -2.575,-51.027 7.113,-74.42" style="fill:none;stroke:#000;stroke-width:9px;"/><path d="M338.397,99.665c-4.372,-0.002 -13.585,0.155 -16.033,-0.009c-4.516,-0.301 -15.526,0.601 -20.309,-0.011c-1.721,-0.221 -0.347,-16.499 -0.345,-19.922c0.001,-1.647 -0.977,-17.099 0.722,-17.075c6.941,0.097 15.684,0.009 17.815,0.01" style="fill:none;stroke:#000;stroke-width:9px;"/><path d="M158.488,83.631c2.449,0 13.344,0.61 17.863,0c1.096,-0.148 0.303,-22.256 0,-22.256c-2.823,0 -36.756,-0.646 -36.705,0c0.417,5.23 -0.087,13.249 0,14.837c0.245,4.485 -1.591,22.169 2.202,22.257c11.565,0.268 29.847,0 34.503,0" style="fill:none;stroke:#000;stroke-width:9px;"/><path d="M47.496,63.245c0,-2.721 -2.209,-4.93 -4.93,-4.93l-9.862,0c-2.721,0 -4.93,2.209 -4.93,4.93l0,9.862c0,2.721 2.209,4.93 4.93,4.93l9.862,0c2.721,0 4.93,-2.209 4.93,-4.93l0,-9.862Z" style="fill:#fff;stroke:#000;stroke-width:1px;"/><path d="M43.191,77.725c0.471,0.027 0.6,0.074 0.849,0.168c0.903,0.34 1.582,1.206 1.688,2.176c0.049,0.447 0.015,0.538 0.012,0.757c-0.022,1.784 -0.088,3.567 -0.147,5.35c0,0 0.471,0.003 1.101,0.025c0.302,0.011 3.552,-0.361 4.522,1.673c1.049,2.203 -0.306,10.391 -0.515,12.955c0,0 -0.627,3.084 -1.883,2.492c-2.067,-0.975 -1.817,-2.874 -1.819,-2.932c-0.102,-3.052 -0.398,-6.577 -0.531,-9.646c0,0 -0.24,0.145 -3.76,-0.373c-3.177,-0.468 -2.381,-3.177 -2.347,-4.289c0.073,-2.454 0.11,-3.182 0.123,-5.634c0,0 0.076,-1.242 0.748,-1.93c0.405,-0.415 0.95,-0.69 1.525,-0.769c0.278,-0.038 0.345,-0.023 0.434,-0.023Z" style="fill:#fff;fill-rule:nonzero;stroke:#000;stroke-width:1px;stroke-linecap:butt;stroke-miterlimit:1.41421;"/><path d="M59.351,66.211c0.996,0.009 1.953,0.05 2.782,0.745c0.415,0.347 0.151,0.036 0.481,0.539c0.978,1.487 0.614,3.577 0.639,5.726c0.011,0.915 0.017,2.156 0.017,2.156c2.435,-0.038 4.877,0.265 7.183,0.749c2.316,0.487 2.682,2.855 0.229,3.893c-0.698,0.295 -7.037,0.641 -9.806,0.654c-0.307,0 -0.76,-0.059 -0.76,-0.059c-0.705,-0.165 -0.589,-0.184 -0.792,-0.302c-0.16,-0.093 -0.311,-0.204 -0.448,-0.329c-0.938,-0.853 -0.839,-1.112 -0.861,-1.945c0,-2.18 -0.001,-4.363 -0.051,-6.545l0,0c-2.486,0.081 -4.959,0.297 -7.478,0.314c-1.344,0.009 -3.087,-1.448 -2.711,-3.186c0.291,-1.343 1.668,-2.047 3.182,-2.082c2.798,-0.076 5.579,-0.341 8.394,-0.328Z" style="fill:#fff;fill-rule:nonzero;stroke:#000;stroke-width:1px;stroke-linecap:butt;stroke-miterlimit:1.41421;"/><path d="M19.023,64.737c2.26,0.005 4.517,0.055 6.781,0.058c0,0 2.731,0.702 2.624,2.765c-0.069,1.322 -1.242,2.46 -2.63,2.494c-2.997,-0.003 -6.018,-0.092 -9.034,-0.044l-0.12,0.003c0.101,4.817 0.186,15.216 -1.45,16.982c-1.645,1.776 -3.34,-0.79 -3.442,-2.174c-0.277,-5.715 -0.31,-11.509 -0.416,-17.232c0,0 -0.024,-0.074 0.062,-0.51l0.113,-0.382c0.18,-0.444 0.015,-0.149 0.317,-0.594l0.177,-0.224c0.116,-0.127 -0.293,-0.037 0.765,-0.607c1.726,-0.93 4.023,-0.538 6.253,-0.535Z" style="fill:#fff;fill-rule:nonzero;stroke:#000;stroke-width:1px;stroke-linecap:butt;stroke-miterlimit:1.41421;"/><path d="M32.889,77.287c0.347,0.019 -0.147,-0.331 1.077,0.263c0.764,0.372 0.969,0.807 0.969,0.807c0.221,0.315 0.418,0.855 0.418,0.855c0.107,0.422 0.079,0.306 0.096,0.641l-0.023,0.429c-0.026,0.159 0.007,0.093 -0.079,0.38c-0.22,0.736 -4.626,6.086 -5.939,8.353c0,0 0.871,8.582 1.384,10.647c0,0 0.676,2.008 -0.653,2.802c-0.811,0.484 -1.988,-0.041 -2.559,-1.586c-0.199,-0.54 -2.648,-7.606 -3.439,-11.27c0,0 -0.132,-0.623 -0.084,-1.101c0.204,-2.034 5.326,-8.329 6.379,-9.736c0,0 1.032,-1.485 2.453,-1.484Z" style="fill:#fff;fill-rule:nonzero;stroke:#000;stroke-width:1px;stroke-linecap:butt;stroke-miterlimit:1.41421;"/><path d="M42.572,56.342c3.583,0.023 6.824,3.049 6.896,6.815c0.021,3.318 0.001,6.637 0.001,9.956c-0.023,3.585 -3.092,6.825 -6.815,6.896c-3.318,0.021 -6.637,0.001 -9.956,0.001c-3.584,-0.023 -6.825,-3.092 -6.896,-6.815c-0.021,-3.318 -0.001,-6.637 -0.001,-9.956c0.023,-3.584 3.092,-6.825 6.815,-6.896c3.318,-0.021 6.637,-0.001 9.956,-0.001Zm-9.862,3.945c-1.545,0.01 -2.933,1.318 -2.964,2.92c-0.021,3.312 -0.021,6.626 0,9.938c0.029,1.524 1.34,2.89 2.92,2.92c3.312,0.021 6.625,0.021 9.938,0c1.523,-0.029 2.89,-1.34 2.92,-2.92c0.021,-3.312 0.021,-6.626 0,-9.938c-0.029,-1.524 -1.34,-2.89 -2.92,-2.92c-3.298,-0.021 -6.596,0 -9.894,0Z" style="fill:#fff;fill-rule:nonzero;stroke:#000;stroke-width:1px;stroke-linecap:butt;stroke-miterlimit:1.41421;"/><path d="M40.704,64.601c0,-0.839 -0.681,-1.52 -1.52,-1.52l-3.098,0c-0.839,0 -1.521,0.681 -1.521,1.52l0,3.041c0,0.839 0.682,1.52 1.521,1.52l3.098,0c0.839,0 1.52,-0.681 1.52,-1.52l0,-3.041Z" style="stroke:#000;stroke-width:1px;stroke-linecap:butt;stroke-miterlimit:1.41421;"/><path d="M470.425,62.11c15.283,0.122 13.165,-0.244 34.78,0" style="fill:none;stroke:#000;stroke-width:9px;"/><path d="M480.028,25c-0.153,0.172 0,24.792 0,27.021c0,9.3 -0.993,45.893 0.524,51.227c3.266,11.483 7.309,26.057 11.976,33.776" style="fill:none;stroke:#000;stroke-width:9px;"/><path d="M89.425,62.11c15.283,0.122 13.165,-0.244 34.78,0" style="fill:none;stroke:#000;stroke-width:9px;"/><path d="M99.028,25c-0.153,0.172 0,24.792 0,27.021c0,9.3 -0.993,45.893 0.524,51.227c3.266,11.483 7.309,26.057 11.976,33.776" style="fill:none;stroke:#000;stroke-width:9px;"/><path d="M454.375,40.274c0,4.187 -0.2,12.649 0,22.5c0.021,1.045 -34.702,0 -37.5,0" style="fill:none;stroke:#000;stroke-width:9px;"/><path d="M414.625,24.524c0,8.288 -0.018,33.368 0,41.209c0.025,11.073 0.75,18.237 -4.5,33.791" style="fill:none;stroke:#000;stroke-width:9px;"/><path d="M441.584,99.524c-1.586,-13.94 -1.478,-16.649 -3.072,-30.655" style="fill:none;stroke:#000;stroke-width:9px;"/></svg>